HIERARCHY
ROOT root
{
	OFFSET	0	13.1	24.9
	CHANNELS 6  Xposition Yposition Zposition Xrotation Yrotation Zrotation
	JOINT spine_1
	{
		OFFSET	0	9.99999	0
		CHANNELS 3  Xrotation Yrotation Zrotation
		JOINT spine_2
		{
			OFFSET	0	112	-10
			CHANNELS 3  Xrotation Yrotation Zrotation
			JOINT spine_3
			{
				OFFSET	0	206.5	19.3
				CHANNELS 3  Xrotation Yrotation Zrotation
				JOINT spine_4
				{
					OFFSET	0	110.4	14.6
					CHANNELS 3  Xrotation Yrotation Zrotation
					JOINT neck_1
					{
						OFFSET	0	71.8	-50.3
						CHANNELS 3  Xrotation Yrotation Zrotation
						JOINT neck_2
						{
							OFFSET	0	86.2	-25.8
							CHANNELS 3  Xrotation Yrotation Zrotation
							JOINT head_ee
							{
								OFFSET	0	179.8	-8.7
								CHANNELS 3  Xrotation Yrotation Zrotation
								End Site
								{
									OFFSET	1	0	0
								}
							}
						}
					}
					JOINT left_clavicle
					{
						OFFSET	-43.2	22.4	-70.8
						CHANNELS 3  Xrotation Yrotation Zrotation
						JOINT left_shoulder
						{
							OFFSET	-93.9	-5.79999	48.7
							CHANNELS 3  Xrotation Yrotation Zrotation
							JOINT left_elbow
							{
								OFFSET	-291.4	-30.8	15.2
								CHANNELS 3  Xrotation Yrotation Zrotation
								JOINT left_lowarm_twist
								{
									OFFSET	-110.7	-3.89999	13.6
									CHANNELS 3  Xrotation Yrotation Zrotation
									JOINT left_hand
									{
										OFFSET	-110.7	-3.89999	13.6
										CHANNELS 3  Xrotation Yrotation Zrotation
										JOINT left_ee
										{
											OFFSET	-80.8	-5.10001	12.1
											CHANNELS 3  Xrotation Yrotation Zrotation
											End Site
											{
												OFFSET	1	0	0
											}
										}
									}
								}
							}
						}
					}
					JOINT right_clavicle
					{
						OFFSET	43.2	22.4	-70.8
						CHANNELS 3  Xrotation Yrotation Zrotation
						JOINT right_shoulder
						{
							OFFSET	93.9	-5.79999	48.7
							CHANNELS 3  Xrotation Yrotation Zrotation
							JOINT right_elbow
							{
								OFFSET	291.4	-30.8	15.2
								CHANNELS 3  Xrotation Yrotation Zrotation
								JOINT right_lowarm_twist
								{
									OFFSET	110.7	-3.89999	13.6
									CHANNELS 3  Xrotation Yrotation Zrotation
									JOINT right_hand
									{
										OFFSET	110.7	-3.89999	13.6
										CHANNELS 3  Xrotation Yrotation Zrotation
										JOINT right_ee
										{
											OFFSET	80.8	-5.10001	12.1
											CHANNELS 3  Xrotation Yrotation Zrotation
											End Site
											{
												OFFSET	1	0	0
											}
										}
									}
								}
							}
						}
					}
				}
			}
		}
	}
	JOINT left_hip
	{
		OFFSET	-82.8	-127.5	0.300001
		CHANNELS 3  Xrotation Yrotation Zrotation
		JOINT left_knee
		{
			OFFSET	-28.2	-396.7	2.2
			CHANNELS 3  Xrotation Yrotation Zrotation
			JOINT left_ankle
			{
				OFFSET	-11.7	-411.3	35.4
				CHANNELS 3  Xrotation Yrotation Zrotation
				JOINT left_toes
				{
					OFFSET	0	-60	-88.6
					CHANNELS 3  Xrotation Yrotation Zrotation
					JOINT left_foot_ee
					{
						OFFSET	-22.5	-16.5	-42.2
						CHANNELS 3  Xrotation Yrotation Zrotation
						End Site
						{
							OFFSET	1	0	0
						}
					}
				}
			}
		}
	}
	JOINT right_hip
	{
		OFFSET	82.8	-127.5	0.300001
		CHANNELS 3  Xrotation Yrotation Zrotation
		JOINT right_knee
		{
			OFFSET	28.2	-396.7	2.2
			CHANNELS 3  Xrotation Yrotation Zrotation
			JOINT right_ankle
			{
				OFFSET	11.7	-411.3	35.4
				CHANNELS 3  Xrotation Yrotation Zrotation
				JOINT right_toes
				{
					OFFSET	0	-60	-88.6
					CHANNELS 3  Xrotation Yrotation Zrotation
					JOINT right_foot_ee
					{
						OFFSET	22.5	-16.5	-42.2
						CHANNELS 3  Xrotation Yrotation Zrotation
						End Site
						{
							OFFSET	1	0	0
						}
					}
				}
			}
		}
	}
}
MOTION
Frames: 8
Frame Time: 0.02
797.466725693 622.451 -1623.62504625 -16.8839098237 67.5425278527 11.3280643244 5.58373 0.358849 3.34235 5.58993 0.145562 3.35838 5.59215 -0.238114 3.3531 5.57658 0.294129 3.34866 -20.971 11.2685 0.348775 -21.7302 21.5545 5.41099 -0.0 0.0 -0.0 -8.11582 17.6461 -10.6184 -8.01396 -34.8229 59.182 2.2724 -48.377 1.02082 -32.2179 -2.16409 3.4476 -0.882356 0.774159 -5.56243 -0.0 0.0 -0.0 7.77877 3.04356 -15.1615 -30.8839 39.1409 -68.4945 0.480798 13.3969 -0.0564679 42.3666 0.47805 5.2694 2.40273 -6.18237 -18.6346 0.0 0.0 0.0 5.59962 2.32739 5.84454 7.252 -0.365792 -1.05154 14.4287 -12.5203 -2.148 35.7438 -0.0 -0.0 -0.0 0.0 -0.0 27.1194 23.8669 -4.41135 -47.8194 1.03761 -7.05606 15.6665 -22.5911 2.25756 18.3761 -0.0 -0.0 0.0 0.0 0.0 
792.598998726 624.892 -1623.68062764 -17.0189522906 67.2846269498 11.4274510439 5.45334 0.441461 3.5988 5.46052 0.211718 3.61956 5.46682 -0.210006 3.61966 5.44872 0.363907 3.60746 -20.1323 11.5486 0.168027 -20.8881 22.1699 5.20245 -0.0 0.0 -0.0 -8.11871 17.0545 -10.8264 -7.25001 -34.9316 58.9903 2.2934 -48.6384 1.03655 -32.3853 -2.18011 3.46189 -0.723298 0.130259 -4.77889 -0.0 0.0 -0.0 7.96771 2.88837 -15.5485 -31.4023 38.677 -69.1621 0.434607 12.1501 -0.0462548 42.5694 0.48961 5.29262 2.41652 -5.26084 -18.3923 0.0 0.0 0.0 5.16635 4.51926 6.18544 7.13464 -0.358817 -1.03491 14.5595 -13.6599 -2.18247 35.1325 -0.0 -0.0 -0.0 0.0 -0.0 28.0074 22.1485 -5.57659 -45.1497 0.826461 -6.70364 15.9603 -23.9017 2.31223 18.4357 -0.0 -0.0 0.0 0.0 0.0 
789.97247211 622.289 -1629.11728694 -16.689967886 68.5927108006 11.7845353401 5.19883 0.349245 3.85116 5.20707 0.103665 3.86555 5.20657 -0.363704 3.84982 5.18598 0.248401 3.85896 -19.4704 11.0957 -1.66647 -20.1861 22.2262 3.16826 -0.0 0.0 -0.0 -7.9527 15.6182 -11.035 -4.91541 -35.2312 58.4156 2.21036 -47.5886 0.974719 -33.7447 -2.3118 3.57618 -0.450643 -0.244616 -3.11575 -0.0 0.0 -0.0 8.28814 3.20543 -16.2085 -31.7305 39.2244 -70.5592 0.343983 9.67045 -0.0290982 38.9611 0.29633 4.87359 1.85525 -5.55054 -14.6464 0.0 0.0 0.0 4.97775 8.20137 5.24709 6.93395 -0.346969 -1.00643 14.0511 -8.41619 -2.04698 36.576 -0.0 -0.0 -0.0 0.0 -0.0 30.8705 22.1552 -8.38929 -41.1471 0.541351 -6.1581 14.1163 -24.031 2.06022 20.2513 -0.0 -0.0 0.0 0.0 0.0 
788.49857015 619.221 -1630.12685724 -16.3466748192 67.6254084183 11.5481581526 5.07164 0.379695 3.90659 5.08012 0.130535 3.9228 5.08163 -0.352436 3.90914 5.06041 0.268875 3.91576 -19.5233 11.1053 -2.07239 -20.2546 22.4517 2.81067 -0.0 0.0 -0.0 -7.78141 14.6881 -11.0503 -3.83178 -35.3617 58.1819 2.20858 -47.5658 0.97341 -33.8948 -2.32651 3.5886 -0.364489 -0.27731 -2.55338 -0.0 0.0 -0.0 8.27007 3.57553 -16.1728 -31.1481 39.4595 -71.7957 0.301233 8.48736 -0.0223522 37.7126 0.235668 4.72593 1.70171 -5.6942 -13.6603 0.0 0.0 0.0 4.81142 11.0939 5.39074 6.8386 -0.341376 -0.992884 13.7305 -6.00155 -1.98082 36.7634 -0.0 -0.0 -0.0 0.0 -0.0 31.679 21.6912 -9.13444 -39.2501 0.419749 -5.89303 13.3772 -26.9259 1.98942 20.3661 -0.0 -0.0 0.0 0.0 0.0 
789.385746734 615.122 -1628.05055407 -17.9128296042 66.4415149357 12.8146502476 4.9306 0.617552 3.94221 4.93917 0.36565 3.97345 4.95728 -0.133444 3.98798 4.93544 0.497554 3.95912 -19.414 10.799 -2.75104 -20.1135 22.2138 2.02153 -0.0 0.0 -0.0 -7.71591 13.7982 -11.2246 -2.17337 -35.8319 58.4112 2.33006 -49.0883 1.06415 -34.5517 -2.39125 3.64254 -0.365979 -1.01152 -2.87798 -0.0 0.0 -0.0 8.36086 4.41858 -16.3624 -31.6896 40.1245 -70.9833 0.383364 10.7531 -0.0360803 35.83 0.15032 4.50087 1.62134 -5.91734 -13.2022 0.0 0.0 0.0 6.16862 10.5841 5.71473 6.86084 -0.342678 -0.996044 15.7042 -5.27226 -2.2397 37.0998 -0.0 -0.0 -0.0 0.0 -0.0 33.1396 24.513 -10.1205 -32.994 0.0822079 -4.99348 14.0125 -25.8044 2.06561 20.1729 -0.0 -0.0 0.0 0.0 0.0 
786.284451724 617.133 -1627.23429508 -17.7218403834 66.506358206 12.5290504898 4.78349 0.53913 3.94808 4.79211 0.287014 3.97433 4.8051 -0.222349 3.97846 4.78325 0.40826 3.96372 -19.3556 10.7632 -2.9441 -20.0509 22.2462 1.815 -0.0 0.0 -0.0 -7.61772 14.2224 -10.9198 -1.97087 -36.3874 58.4345 2.27809 -48.4481 1.02507 -34.7291 -2.40884 3.65698 -0.227997 -0.686493 -1.81497 -0.0 0.0 -0.0 8.39079 4.49681 -16.4248 -31.5939 40.188 -71.1794 0.336841 9.47337 -0.0279106 35.2447 0.125302 4.43035 1.47665 -5.66512 -12.1337 0.0 0.0 0.0 6.08565 13.7793 6.42135 6.61419 -0.328299 -0.960969 13.5958 -2.90522 -1.93994 37.1495 -0.0 -0.0 -0.0 0.0 -0.0 33.2059 22.7681 -9.40414 -31.2646 0.00644503 -4.73893 14.8939 -26.6563 2.19972 21.0483 -0.0 -0.0 0.0 0.0 0.0 
782.023047335 615.303 -1626.31480482 -18.2645924194 63.7498687834 12.0192703807 4.73261 0.761554 3.85596 4.74074 0.514837 3.89652 4.7693 0.0116308 3.93032 4.7483 0.631732 3.87931 -17.9923 12.0034 -2.05894 -18.7409 24.1877 2.8896 -0.0 0.0 -0.0 -7.50601 15.1045 -10.4486 -1.0457 -35.9424 59.1272 2.38291 -49.7229 1.10428 -34.3856 -2.37482 3.62897 -0.593816 -0.838434 -4.33137 -0.0 0.0 -0.0 8.48688 3.84202 -16.6229 -34.0321 40.6628 -68.8251 0.44027 12.3036 -0.047454 34.3893 0.0900366 4.32684 1.43945 -5.79682 -11.9343 0.0 0.0 0.0 8.42567 11.6266 6.74014 4.39072 -0.20555 -0.642141 15.0503 -3.05974 -2.13551 37.3465 -0.0 -0.0 -0.0 0.0 -0.0 33.7139 27.2091 -10.7579 -23.0295 -0.247373 -3.50167 13.1226 -29.2033 1.98225 19.5345 -0.0 -0.0 0.0 0.0 0.0 
782.124862771 615.303 -1625.84615697 -18.3306541949 63.848177025 12.0928972267 4.73261 0.761554 3.85596 4.74074 0.514837 3.89652 4.7693 0.0116308 3.93032 4.7483 0.631732 3.87931 -17.9923 12.0034 -2.05894 -18.7409 24.1877 2.8896 -0.0 0.0 -0.0 -7.50601 15.1045 -10.4486 -1.0457 -35.9424 59.1272 2.38291 -49.7229 1.10428 -34.3856 -2.37482 3.62897 -0.593816 -0.838434 -4.33137 -0.0 0.0 -0.0 8.48688 3.84202 -16.6229 -34.0321 40.6628 -68.8251 0.44027 12.3036 -0.047454 34.3893 0.0900366 4.32684 1.43945 -5.79682 -11.9343 0.0 0.0 0.0 8.42567 11.6266 6.74014 4.39072 -0.20555 -0.642141 15.0503 -3.05974 -2.13551 37.3465 -0.0 -0.0 -0.0 0.0 -0.0 33.7139 27.2091 -10.7579 -23.0295 -0.247373 -3.50167 13.1226 -29.2033 1.98225 19.5345 -0.0 -0.0 0.0 0.0 0.0 
